<?xml version="1.0" encoding="UTF-8"?>
<svg id="Camada_1" data-name="Camada 1" xmlns="http://www.w3.org/2000/svg" viewBox="0 0 1000 1000">
  <defs>
    <style>
      .cls-1 {
        fill: #24a096;
      }

      .cls-1, .cls-2 {
        stroke-width: 0px;
      }

      .cls-2 {
        fill: #04483f;
      }
    </style>
  </defs>
  <path class="cls-1" d="M500.31,983.55C239.79,996.88,11.42,760.96,14.18,505.41,17.07,238.94,231.53,20.39,499.32,19.86c272.33-.55,485.67,225.85,486.83,488.93,1.16,261.7-217.13,474.39-485.84,474.76ZM497.83,671.94c91.34,1.23,174.03-77,173.66-164.3-.39-92.79-74.56-168.63-167.31-171.07-95.19-2.51-172.84,68.61-175.38,160.61-2.61,94.59,73.69,173.47,169.03,174.76Z"/>
  <path class="cls-2" d="M497.83,671.94c-95.34-1.28-171.63-80.16-169.03-174.76,2.53-92,80.19-163.12,175.38-160.61,92.75,2.44,166.92,78.28,167.31,171.07.37,87.3-82.32,165.52-173.66,164.3Z"/>
</svg>