<?xml version="1.0" encoding="UTF-8"?>
<svg id="Camada_1" data-name="Camada 1" xmlns="http://www.w3.org/2000/svg" viewBox="0 0 1000 265.6">
  <defs>
    <style>
      .cls-1 {
        fill: #334030;
      }

      .cls-1, .cls-2, .cls-3, .cls-4, .cls-5, .cls-6, .cls-7, .cls-8, .cls-9, .cls-10, .cls-11, .cls-12, .cls-13, .cls-14, .cls-15, .cls-16, .cls-17, .cls-18, .cls-19, .cls-20, .cls-21, .cls-22, .cls-23, .cls-24, .cls-25, .cls-26, .cls-27, .cls-28, .cls-29, .cls-30, .cls-31, .cls-32, .cls-33, .cls-34, .cls-35, .cls-36, .cls-37, .cls-38, .cls-39, .cls-40, .cls-41, .cls-42, .cls-43, .cls-44, .cls-45, .cls-46, .cls-47 {
        stroke-width: 0px;
      }

      .cls-2 {
        fill: #24a096;
      }

      .cls-3 {
        fill: #8b3329;
      }

      .cls-4 {
        fill: #9a7e64;
      }

      .cls-5 {
        fill: #bc4339;
      }

      .cls-6 {
        fill: #ac624f;
      }

      .cls-7 {
        fill: #818871;
      }

      .cls-8 {
        fill: #b85143;
      }

      .cls-9 {
        fill: #8f735f;
      }

      .cls-10 {
        fill: #62291f;
      }

      .cls-11 {
        fill: #705947;
      }

      .cls-12 {
        fill: #53624c;
      }

      .cls-13 {
        fill: #69735c;
      }

      .cls-14 {
        fill: #353528;
      }

      .cls-15 {
        fill: #b15b4a;
      }

      .cls-16 {
        fill: #6c6852;
      }

      .cls-17 {
        fill: #50503e;
      }

      .cls-18 {
        fill: #4c4e43;
      }

      .cls-19 {
        fill: #773a2e;
      }

      .cls-20 {
        fill: #8e816a;
      }

      .cls-21 {
        fill: #745e4b;
      }

      .cls-22 {
        fill: #5f2319;
      }

      .cls-23 {
        fill: #8f6752;
      }

      .cls-24 {
        fill: #5f7259;
      }

      .cls-25 {
        fill: #883b2e;
      }

      .cls-26 {
        fill: #007265;
      }

      .cls-27 {
        fill: #622e21;
      }

      .cls-28 {
        fill: #04483f;
      }

      .cls-29 {
        fill: #854a3a;
      }

      .cls-30 {
        fill: #71241a;
      }

      .cls-31 {
        fill: #5c6558;
      }

      .cls-32 {
        fill: #945344;
      }

      .cls-33 {
        fill: #be3a30;
      }

      .cls-34 {
        fill: #732318;
      }

      .cls-35 {
        fill: #552c22;
      }

      .cls-36 {
        fill: #875546;
      }

      .cls-37 {
        fill: #682f24;
      }

      .cls-38 {
        fill: #b8493e;
      }

      .cls-39 {
        fill: #6a3c30;
      }

      .cls-40 {
        fill: #6b2119;
      }

      .cls-41 {
        fill: #7b8276;
      }

      .cls-42 {
        fill: #875645;
      }

      .cls-43 {
        fill: #925344;
      }

      .cls-44 {
        fill: #a14f3f;
      }

      .cls-45 {
        fill: #9fa19b;
      }

      .cls-46 {
        fill: #645d4b;
      }

      .cls-47 {
        fill: #ac6d58;
      }
    </style>
  </defs>
  <g>
    <path class="cls-2" d="M932.54,226.68c-27.68,1.42-51.94-23.65-51.65-50.8.31-28.31,23.09-51.53,51.54-51.59,28.93-.06,51.6,24,51.72,51.95.12,27.8-23.07,50.4-51.62,50.44ZM932.28,193.58c9.7.13,18.49-8.18,18.45-17.46-.04-9.86-7.92-17.92-17.78-18.18-10.11-.27-18.36,7.29-18.63,17.06-.28,10.05,7.83,18.43,17.96,18.57Z"/>
    <path class="cls-28" d="M932.28,193.58c-10.13-.14-18.24-8.52-17.96-18.57.27-9.78,8.52-17.33,18.63-17.06,9.85.26,17.73,8.32,17.78,18.18.04,9.27-8.75,17.59-18.45,17.46Z"/>
  </g>
  <g>
    <path class="cls-26" d="M403.92,132.17c5.9,3.09,10.53,7.67,13.91,13.74,3.38,6.07,5.07,13.4,5.07,21.98v55.81h-19.4v-52.89c0-8.47-2.12-14.97-6.35-19.49-4.24-4.52-10.02-6.78-17.34-6.78s-13.14,2.26-17.43,6.78c-4.29,4.52-6.44,11.02-6.44,19.49v52.89h-19.4v-52.89c0-8.47-2.12-14.97-6.35-19.49-4.24-4.52-10.02-6.78-17.34-6.78s-13.14,2.26-17.43,6.78c-4.29,4.52-6.44,11.02-6.44,19.49v52.89h-19.58v-94.62h19.58v10.82c3.2-3.89,7.27-6.93,12.19-9.1,4.92-2.17,10.19-3.26,15.8-3.26,7.56,0,14.31,1.6,20.26,4.81,5.95,3.21,10.53,7.84,13.74,13.91,2.86-5.72,7.33-10.27,13.39-13.65,6.07-3.38,12.59-5.07,19.58-5.07,7.44,0,14.11,1.55,20.01,4.64Z"/>
    <path class="cls-26" d="M447.19,150.72c3.95-7.33,9.33-13.02,16.14-17.09,6.81-4.06,14.34-6.1,22.58-6.1,7.44,0,13.94,1.46,19.49,4.38,5.55,2.92,9.99,6.56,13.31,10.9v-13.74h19.75v94.62h-19.75v-14.08c-3.32,4.46-7.84,8.19-13.57,11.16-5.73,2.98-12.25,4.46-19.58,4.46-8.13,0-15.57-2.09-22.32-6.27-6.76-4.18-12.11-10.02-16.06-17.52-3.95-7.5-5.92-16-5.92-25.5s1.97-17.92,5.92-25.24ZM514.68,159.3c-2.69-4.81-6.21-8.47-10.56-10.99-4.35-2.52-9.05-3.78-14.08-3.78s-9.73,1.23-14.08,3.69c-4.35,2.46-7.87,6.07-10.56,10.82-2.69,4.75-4.04,10.39-4.04,16.92s1.34,12.25,4.04,17.17c2.69,4.92,6.24,8.67,10.65,11.25,4.41,2.58,9.07,3.86,14,3.86s9.73-1.26,14.08-3.78c4.35-2.52,7.87-6.21,10.56-11.08,2.69-4.86,4.04-10.56,4.04-17.09s-1.35-12.19-4.04-17Z"/>
    <path class="cls-26" d="M650.26,183.69h-72.3c.57,7.56,3.38,13.63,8.41,18.2,5.04,4.58,11.22,6.87,18.55,6.87,10.53,0,17.97-4.41,22.32-13.22h21.12c-2.86,8.7-8.04,15.83-15.54,21.38-7.5,5.55-16.8,8.33-27.91,8.33-9.05,0-17.15-2.03-24.3-6.1-7.16-4.06-12.77-9.79-16.83-17.17-4.06-7.38-6.1-15.94-6.1-25.67s1.97-18.29,5.92-25.67,9.5-13.08,16.66-17.09c7.15-4.01,15.37-6.01,24.64-6.01s16.89,1.95,23.87,5.84c6.98,3.89,12.42,9.36,16.31,16.4,3.89,7.04,5.84,15.14,5.84,24.3,0,3.55-.23,6.76-.69,9.62ZM630.51,167.89c-.12-7.21-2.69-12.99-7.73-17.34-5.04-4.35-11.28-6.53-18.72-6.53-6.76,0-12.54,2.15-17.34,6.44-4.81,4.29-7.67,10.1-8.59,17.43h52.38Z"/>
    <path class="cls-26" d="M684.51,221.21c-5.9-2.69-10.56-6.35-14-10.99-3.43-4.64-5.27-9.82-5.5-15.54h20.26c.34,4.01,2.26,7.36,5.75,10.05,3.49,2.69,7.87,4.04,13.14,4.04s9.76-1.06,12.79-3.18c3.03-2.12,4.55-4.83,4.55-8.16,0-3.55-1.69-6.18-5.07-7.9-3.38-1.72-8.73-3.61-16.06-5.67-7.1-1.95-12.88-3.83-17.34-5.67-4.46-1.83-8.33-4.64-11.59-8.41s-4.89-8.76-4.89-14.94c0-5.04,1.49-9.64,4.46-13.82,2.98-4.18,7.24-7.47,12.79-9.87,5.55-2.4,11.94-3.61,19.15-3.61,10.76,0,19.43,2.72,26.02,8.16,6.58,5.44,10.1,12.85,10.56,22.24h-19.58c-.34-4.23-2.06-7.61-5.15-10.13-3.09-2.52-7.27-3.78-12.54-3.78s-9.1.97-11.85,2.92c-2.75,1.95-4.12,4.52-4.12,7.73,0,2.52.92,4.64,2.75,6.35,1.83,1.72,4.06,3.06,6.7,4.04,2.63.97,6.53,2.21,11.68,3.69,6.87,1.83,12.51,3.69,16.92,5.58,4.41,1.89,8.21,4.67,11.42,8.33,3.2,3.67,4.86,8.53,4.98,14.6,0,5.38-1.49,10.19-4.46,14.42-2.98,4.24-7.19,7.56-12.62,9.96-5.44,2.4-11.82,3.61-19.15,3.61s-14.11-1.35-20.01-4.04Z"/>
    <path class="cls-26" d="M784.72,145.05v52.38c0,3.55.83,6.1,2.49,7.64,1.66,1.55,4.49,2.32,8.5,2.32h12.02v16.31h-15.46c-8.82,0-15.57-2.06-20.26-6.18-4.7-4.12-7.04-10.82-7.04-20.09v-52.38h-11.16v-15.97h11.16v-23.53h19.75v23.53h23.01v15.97h-23.01Z"/>
    <path class="cls-26" d="M856.75,131.57c4.75-2.69,10.39-4.04,16.92-4.04v20.26h-4.98c-7.67,0-13.48,1.95-17.43,5.84-3.95,3.89-5.92,10.65-5.92,20.26v49.8h-19.58v-94.62h19.58v13.74c2.86-4.81,6.67-8.56,11.42-11.25Z"/>
  </g>
  <g>
    <path class="cls-15" d="M19.56,175.05c0-7.22,0-14.44,0-21.66,5.14-3.32,8.54-3.1,12.73,1.08,1.56,1.55,3.17,1.9,5.31,1.8,8.68-.38,17.3-2.56,25.99-1.68,7.86.8,15.74-.21,23.58.81,2.68.35,5.49-1.14,8.2.23,1.67.41,1.8,1.9,2.2,3.19.7,2.29,1.02,4.68,2.01,7.26,1.87-.94,3.11-2.31,4.1-3.97.5-.85.67-2.05,2.07-1.97,4.91.9,9.87,1.32,14.82,1.84.58.06,1.19.22,1.73.05,5.36-1.68,10.81-.4,16.21-.56.58-.02,1.22.13,1.73-.09,4.92-2.15,8.66.34,12.36,3.07,1.09,2.34.75,4.76.45,7.19-.22.85-.62,1.58-1.33,2.12-.42.13-.85.15-1.28.08-2.51-1.05-4.87-1.43-7.01.9-.98,1.07-2.47,1.33-3.88,1.28-10.36-.36-20.69,1.34-31.03.69-19.77-1.25-39.55-.2-59.31-.66-6.83-.16-13.69,1.19-20.5-.47-1.7-.41-3.44.4-5.16.69-1.51.25-3.06.51-3.96-1.23Z"/>
    <path class="cls-47" d="M95.71,156.1c-3.76-1.05-7.6,1.63-11.36-.31-2.07-1.07-4.09.34-6.15.45-5.03.27-9.95-.83-14.95-.79-6.84.06-13.61.41-20.39,1.7-2.41.46-5.2.07-7.81.39-1.47.18-2.32-.94-3.14-1.91-3.28-3.88-4.88-4.31-9.62-2.66-.86.3-1.82.29-2.73.43-.03-6.61,0-13.23-.14-19.84-.05-2.16,1-2.31,2.74-2.46,9.83-.87,19.15,1.8,28.45,4.24,3.16.83,5.85.58,8.76-.52,7.37-2.78,14.78-5.43,22.18-8.14.15.07.3.14.45.21,4.98,5.82,9.38,11.98,11.54,19.46.08.3.14.61.19.91.11.43.22.87.35,1.29.28.95.58,1.9.89,2.85.14.39.27.78.41,1.18.14.39.25.79.36,1.19.13.4.26.79.35,1.2.05.44-.01.84-.38,1.14Z"/>
    <path class="cls-8" d="M19.56,175.05c1.05.64,2.11.82,3.32.38,3.12-1.13,6.34-1.65,9.51-.36,3.03,1.23,5.94-.06,8.91-.05,19.91.04,39.83-.17,59.74.15,5.31.08,10.67.9,15.98.49,7.78-.6,15.54-.58,23.32-.62.82,0,1.85.13,2.26-.62,2.67-4.8,5.85-2.67,9.04-.76q1.45,3.42,4.86,2.4c.33.06.6.22.8.49-.4.92-1.17,1.56-2.06,1.77-4.18.99-5.14,4.11-5.68,7.8-.83,5.74-1.93,11.45-2.94,17.17-.72,4.07-2.05,5.35-6.2,4.66-8.83-1.47-17.6-3.29-26.39-5.01-3.3-.65-6.58-1.49-9.97-.59.44-2.6,2.57-2.32,4.3-2.27,2.78.09,5.56.58,8.23,1.32,6.72,1.86,13.62,2.84,20.45,4.18,6.35,1.25,7,.66,8.02-5.59.07-.46.14-.92.23-1.37.1-.56.23-1.11.34-1.67.19-1.13.24-2.29.5-3.42.36-1.02.27-2.06.18-3.11-.28-3.27-.42-3.36-3.47-2.26-.89.32-1.81.44-2.74.42-10.8-.28-21.59-.1-32.37.53-1.07.06-2.22.01-3.02-.64-2.48-2.01-5.36-1.87-8.28-1.9-6.98-.06-13.96,0-20.94-.03-1.65,0-3.23.28-4.79.81-2.15.73-4.32.5-6.54.16-9.33-1.4-18.68-1.53-28.03-.01-4.13.67-8.3,1.11-12.45,1.6-1.56.18-3.01-.24-4.11-1.48,0-4.19,0-8.37,0-12.56Z"/>
    <path class="cls-5" d="M146.72,193.89c-.02,1.16-.04,2.33-.05,3.49-.2.24-.42.48-.64.7,0,.81.04,1.64-.03,2.44-.57,6.34-1.92,7.33-8.23,6.08-9.3-1.85-18.59-3.74-27.9-5.53-2.04-.39-4.2-.69-5.8,1.25-1.85,1.15-3.8,2.02-6.01,2.14-2.49.21-4.69,1.51-7.14,1.86-2.11-.84-3.99-.89-5.19,1.48-1.94.76-4.02,1.11-5.88,2.11-.58.31-1.11.26-1.32-.52-.26-1.24,1.07-1.99,1.04-3.27-10.96-.49-21.86-.99-32.75.1-1.75.17-3.49.31-5.21-.04-5.79-1.2-11.59-.14-17.38-.13-1.6,0-3.3.27-4.65-.97,0-3.26,0-6.52,0-9.78,3.34-1.63,7.02-1.52,10.55-1.59,11.51-.25,23.07-.54,34.54.12,9.31.53,18.56.12,27.84.19,1.43.01,2.76-.33,4.07-.84.87-.33,1.73-.69,2.69-.69,1.1,0,2.21.2,2.6,1.34.46,1.35-.68,1.77-1.65,2.2-.4.18-.93.17-1.06,1.11,5.14-4.79,11.74-1.57,17.39-3.59.78-.28,2.14-.26,2.15.47.05,2.9,1.73,1.1,2.81,1.19,3.35.28,6.3-2.3,9.49-1.72,3.1.56,6.25.56,9.3,1.29,1.33.32,2.28.37,2.34-1.4.04-1.23.46-2.5,1.9-2.47,1.8.04,2.09,1.54,2.2,3Z"/>
    <path class="cls-38" d="M146.72,193.89c-.29-.35-.57-.71-.86-1.06-.47-.57-.54-1.78-1.67-1.36-.89.33-1.03,1.2-.76,2.07,1.11,3.57-.1,2.82-3.01,2.46-4.56-.55-9.17-3.2-13.99-.47-2.42,1.37-5.91-.55-8.12,2.25-.3.38-1.06-.16-1.38-.71-.95-1.66,1.32-1.53,1.62-3.28-4.8,2.36-9.62.99-14.28,1.65-1.46.21-2.74,1.64-4.11,2.49-1.01.62-2.02.65-2.81-.31-.35-.42-.78-1.11-.66-1.54.34-1.26,1.52-.68,2.37-.8.95-.14,2.51.24,2.3-1.22-.18-1.26-1.77-1.08-2.68-.75-7.54,2.7-15.38,1.84-23.12,1.94-7.99.1-15.93-.88-23.99-.45-5.6.29-11.38.13-17.06-.25-5.03-.34-9.94,1.08-14.95.73,0-2.56,0-5.12,0-7.68,6.16,1.04,12.08-.53,18.04-1.69,1.13-.22,2.29-.38,3.43-.39,5.55-.04,11.1,0,16.65-.02,2.32,0,4.57,0,6.81,1.04,1.27.59,3.1.69,4.44.28,9.13-2.81,18.45-.67,27.65-1.27,3.04-.2,6.28-.71,8.67,2.2.39.48,1.57.63,2.29.48,6.58-1.33,13.22-.39,19.83-.59,4.13-.13,8.22-1.18,12.41-.1,2.48.64,4.61-.31,5.68-3.28,1.46,3.33,2.93,6.26,1.26,9.63Z"/>
    <path class="cls-33" d="M19.56,205.08c20.69.04,41.39-.83,62.16.03-.52,2.02-2.65,2.83-2.87,4.8-3.78,2.03-8.04,2.68-12.03,4.12-1.2.43-2.42.64-3.28,1.67-13.35,4.08-26.97,7.08-40.48,10.53-3.08.79-3.81.02-3.69-3,.24-6.04.15-12.1.19-18.15Z"/>
    <path class="cls-6" d="M152.34,164.55c-.46-.03-1.1.12-1.36-.13-3.57-3.42-7.67-2.71-12.02-2.07-5.4.8-10.87-.09-16.41.44-5.53.53-11.66.25-17.08-2.43-1.32-1.49-.91-3.29-.91-5.01.14-1.71.89-3.18,2.44-3.88,3.49-1.57,6.18-4.28,9.36-6.29,2.25-1.15,4.13-2.85,6.21-4.24.96-.64,1.86-1.93,3.27-.74-1.73,2.72.38,2.53,1.99,2.55,6.23.09,12.45.09,18.68.18,2.64.04,5.31-.12,7.89.71,1.03,3.84-.31,7.54-.69,11.29-.64,2-.33,4.06-.42,6.1-.06,1.24.11,2.54-.94,3.51Z"/>
    <path class="cls-1" d="M195.71,69.64c-2.11.69-4.22,1.38-6.33,2.07-.55.56-1.55-.13-1.99.73l-.06.02c-.46.23-1.04.14-1.43.55l-.07.03c-.52.63-1.5,0-1.98.73l-.05.03c-2.13-.58-2.16-.67-.75-2.26.5-.56,1.72-.83,1.25-1.79-.48-.97-1.62-.46-2.51-.54-3.73-.33-6.73,1.04-9.12,4.1,1.21.66,3.24.2,4.28,1.79-.37,2.16-3.15,3.23-2.61,5.8.35,1.68.88,3.31.54,5.1-.14.73.46,1.69-.71,1.98-.92.22-1.58-.4-2.01-1.1-1.66-2.67-3.61-5.14-5.29-7.79-.25-.4-.57-.73-.94-1.02-1.59-1.35-2.57-3.48-4.93-3.85-3.21-1.41-6.61-1.05-9.94-.87-3.8.2-4.96,1.44-5.55,5.25-1.47,1.11-2.86-.06-4.29-.17-1.78-.14-3.61.04-4.77,1.43-1.17,1.41.14,2.8.67,4.15.66,1.68,1.9,3.21,1.32,5.2-2.61,1.21-3.83-.59-4.38-2.49-1.45-5.08-5.99-8.43-7.25-13.66-.44-1.82-3.71-1.91-4.06-4.36-.09-.33-.13-.66-.11-1,.08-.33.23-.62.45-.87.13-.09.27-.18.4-.28.3-.12.58-.28.85-.47,20.23-.87,40.41-3.42,60.73-1.84,1.96.15,3.39.26,4.26,2.57,1.23,3.27,3.77.26,5.67.65.72-.46,1.62-.69,2.02.14.52,1.09-.81,1.39-1.3,2.05Z"/>
    <path class="cls-4" d="M88.54,123.94c5.9-3.82,11.23-8.28,15.53-13.89,2.09-4.93,5.44-7.15,10.9-5.33,1.07.36,2.42.14,3.35-.6,3.25-2.58,7.03-1.96,10.72-1.93,1.33.01,2.68.33,3.33,1.55,1.43,2.69,3.8,2.67,6.32,2.56,1.48-.06,2.97-.76,4.47-.05,1.06.96,1.38,2.19,1.28,3.57-.17.55-.45.98-1.11.99-5.25-1.77-7.64-1.15-11.44,4.42-3.21,4.7-7.41,8.07-12.24,10.64-4.56,2.43-9.29,1.18-13.8-.73-1.18-.5-2.18-1.35-3.32-1.93-2.49-1.27-4.83-1.33-7.11.62-2.19,1.87-4.55,2.22-6.87.1Z"/>
    <path class="cls-14" d="M138.31,89.13c-.72-1.71-1.42-3.42-2.18-5.12-.69-1.56-2.29-3.47-.87-4.77,1.6-1.47,3.97-2.36,6.43-1.72,1.23.32,2.44.71,3.66,1.06.77-.82,1.81-.85,2.83-.94,4.78.25,9.35,1.5,13.89,2.89,2.37.72,4.04,2.23,4.65,4.71,1.51,6.1,4.16,12.15,1.05,18.51l-.06.03c-.46.37-.35.99-.65,1.43h0c-2.21.04-1.82-1.74-1.88-2.95-.15-3.2-1.08-6.18-2.36-9.03-1.7-3.79-5.89-4.6-9.01-1.79-.81.72-1.59.85-2.54.71-.74-.32-.41-1.25-.97-1.68-.2.87.56,1.17.97,1.67,3.98.4,7.32,2.39,10.28,4.76,3.93,3.16,3.01,7.98,3.27,12.29.06.98-.16,2.07-.57,3.04-.23.67-.46,1.34-.69,2.01-.61.52-.88,2.88-2.05.42-.44-.93-.69-2-.72-3.02-.14-5.3-4.73-6.35-8.17-8.34-.72-.41-3.16-.55-2.74,2,.1.59-.35,1.07-.72,1.53-.24.24-.51.44-.8.6-.16.04-.33.07-.49.1-1.93-.49-3.03-1.71-3-3.73.04-2.83-1.3-5.1-2.78-7.33-2.12-2.01-3.41-4.45-3.8-7.35Z"/>
    <path class="cls-20" d="M143.22,106.56c-2.17.22-4.27.84-6.52.76-2.26-.07-4.18-.26-4.81-2.89-.17-.73-.78-1.32-1.5-1.25-3.78.34-7.7-1.28-11.31,1.65-2.43,1.97-5.76,1.33-8.56.32-2.2-.79-3.19-.66-3.49,1.85-.19,1.6-1.84,2.15-2.96,3.05,3.97-7.47,6.92-15.39,10.37-23.09,1.04-1.26,2.23-1.38,3.07.03,1.52,2.52,3.49,3.33,6.35,2.59,1.19-.31,2.45.49,3.68.75,4.5.96,4.49.97,5.94-2.8,3.96,1.65,6.59,4.28,7.04,8.8.3,2.97,1.54,5.65,3.25,8.1.65.94,1.27,1.85-.57,2.11Z"/>
    <path class="cls-44" d="M157.3,176.54c-.27-.04-.55-.08-.82-.12.26-2.84,3.06-4.26,3.84-6.81.86-1.8,1.97-3.41,3.4-4.8.83-.81,1.99-1.67,2.09-2.72.45-4.96,4.74-5.5,7.99-7.25,1.15-.62,2.26-.1,3.36.24,5.31,1.65,10.26,3.83,14.56,7.58,2.41,2.11,5.91,1.33,8.75.76,4.53-.91,8.73-.95,12.7,1.63,1.33.86,3.06-.16,4.27,1.03-1.54,1.65-3.56,1.97-5.68,2.18-8.81.84-17.63,1.43-26.47,1.66-4.89.12-9.75.47-14.63.89-5.17.44-10.19.83-13.36,5.75Z"/>
    <path class="cls-35" d="M178.12,131.58c4.59-3.72,9.88-5.94,15.68-6.77,5.21-.74,10.12-2.32,14.94-4.33,2.46-1.03,4.96-1.92,7.69-1.86,2.07.05,3.62.73,3.82,3.09.26.88.45,1.77.48,2.69-.47,2.59-1.66,4.68-4.12,5.87-2.6,1.61-5.63,1.99-8.48,2.87-3.24,1-3.25.93-1.36,3.72.27.4.37.83.21,1.3-1.89,1.69-3.78,1.73-5.48-.19-.89-1-1.93-1.16-3.12-1.2-5.23-.21-10.5-.26-15.1-3.37-.27-.18-.68-.1-.98.15-.17.2-.19.42-.06.64.68,1.14,2.97,1.85,1.26,3.65-1.37,1.44-2.78.47-4.04-.45-.47-.34-.94-.69-1.36-1.09-1.47-1.59-2.1-3.17.05-4.72Z"/>
    <path class="cls-23" d="M88.54,123.94c2.9.73,5.1.68,7.62-1.99,1.59-1.69,5.42-.85,7.89,1.09,2.56,2.01,5.56,2.64,8.71,3.12,5.89.89,9.66-3.05,13.76-5.99,2.02-1.45,3.52-3.66,4.82-5.88,1.43-2.45,4.94-2.82,5.89-5.94.25-.81,5.26,1.14,6,2.43-.04.16-.08.32-.11.47-.15.29-.34.55-.56.79-2.81,2.18-1,4.89-.85,7.41-1.47,2.66-2.44,2.97-4.15.75-1.71-2.23-2.51-1.88-3.97.24-1.33,1.94-1.46,4.11-2.13,6.17-.32.98-.19,2.2-1.15,2.81-3.5,2.21-6.51,5.25-10.74,6.21-3.6.81-6.33-1.27-8.9-3.09-2.86-2.03-5.89-3.63-9-5.2-2.77-1.4-5.31-1.37-7.82.45-.33.13-.66.19-1.01.2-2.08-.8-4.16-1.59-6.26-2.35-.26-.3-.28-.62-.05-.95h.02c.41-.34,1-.23,1.41-.57.16-.16.35-.22.57-.18Z"/>
    <path class="cls-42" d="M93.57,127.51c2.23-3.3,5.1-2.24,8.02-1.23,4.96,1.72,8.81,5.32,13.33,7.8,3.65,1.99,6.33.11,9.24-1.36.38-.19.58-.8.96-.96,4.37-1.75,6.14-5,6.38-9.64.08-1.61,1.54-3.48,2.89-4.61,1.4-1.17,2.79-.38,3.33,1.53.29,1.03.95,2,2.16,1.93.94-.06,1.2-.96,1.25-1.83.73-.38,1.16.04,1.55.58.12.31.09.6-.07.89l.02-.02c-1.17.71-.07,2.01-.74,2.85.09.25.02.45-.19.61-.16.29-.41.52-.48.86-3.45,6.04-7.37,11.61-14.04,14.55-.39.36-1.09.14-1.35.74,0,0,0,0,0,0-2.49.45-3.9,2.57-5.89,3.77-1.04.63-1.88,1.73-3.28,1.69-1.47-2.46-4.09-4.06-4.22-7.56-.08-2.02-2.55-3.53-4.32-4.79-2.36-1.67-4.94-3.03-7.47-4.43-1.7-.94-2.79-.74-2.03,1.61.36,1.1.46,2.11-1.11,2.3-1.36-.27-2.06-1.34-2.82-2.34-.17-.24-.33-.49-.48-.74-.08-.12-.16-.24-.24-.36-.18-.23-.33-.47-.48-.72-.06-.13-.11-.26-.17-.39-.05-.3.04-.55.27-.74Z"/>
    <path class="cls-25" d="M217.43,166.06c-2.22.74-4.14.39-6.14-.97-2.59-1.76-5.63-2.01-8.61-1.09-3.21.98-6.45.37-9.67.5-.53.02-1.42-.17-1.57-.52-1.58-3.61-5.65-3.64-8.25-5.8-2.33-1.94-5.76-2.72-8.37-2.56-1.55.09-3.84,1.68-6.04,2-.26.04-.64.48-.66.76-.36,5.25-5.25,7.64-7.4,11.75-1.54-1.99-.47-3.72.68-5.31,1.77-2.43,3.28-4.99,4.59-7.68.4-1.34.72-2.73,2.08-3.49,1.08-.49,2.5.06,3.25-1.51,1.32-2.75,3.41-2.09,5.1-.5,1.93,1.81,4.1,2.98,6.61,3.61.29.11.56.25.83.39.67.35,1.41.49,2.16.61.31.05.61.13.91.23.47.13.93.27,1.4.4,5.5,1.41,10.81,3.6,16.54,4.02,3.24.24,3.51-.13,2.56-3.19-1.34-4.3-.74-5.15,4.2-5.95,1.19.86,2.15,1.84,1.74,3.49-.85,1.46-2.51,2.64-1.75,5.09,2.03-1.45.14-3.84,1.72-5.03,1.53-1.65,4.02,1.61,4.91-.54,1.4-3.35,3.36-6.52,3.66-10.33.23-2.9-.68-5.98,1.15-8.67,1.84.59,1.47,2.2,1.49,3.5.05,2.57.19,5.1.87,7.59.38,1.39.23,2.72-.38,4.07-.62,1.37-1.03,2.85-.43,4.38-.18,2.59-1.23,4.9-2.33,7.19-.9.71-1.81,1.43-2.71,2.14-.76.39-1.58.7-2.12,1.42h-.01Z"/>
    <path class="cls-40" d="M168.41,154.07c-1.11.9-1.46,2.1-1.41,3.47-3.15,1.72-4.5,4.83-5.98,7.81-1.36,2.73-4.44,3.85-7.14,2.62-.87-.4-1.22-.98-1.18-1.88.17-3.78-.38-7.58.29-11.35.35-3.71.48-7.45,1.41-11.09,3.67-.35,7.42.43,11.02-.84,2.99-.57,4.84.4,6.72,3.67,1.2,2.09.08,3.7-1.18,5.3-.73.92-1.54,1.7-2.54,2.3Z"/>
    <path class="cls-7" d="M133.43,87.73c.33,4.8.36,4.65-4.57,3.74-2.59-.48-5.12-1.9-8.02-.5-1.47.71-2.22-1.14-3.03-2.25-.8-1.1-1.32-2.97-3.37-1.75,2.13-6.06,4.22-12.14,6.41-18.18.46-1.27,1.11-2.58,2.79-2.72.17.14.22.29.16.43-.06.14-.11.21-.17.21v.02c-.23.24-.45.47-.68.7h-.01c-.3,2,.69,3.53,2.35,4.12,2.03.72,2.51,2.25,2.92,3.94.59,2.41,1.43,4.43,3.6,6.1,1.73,1.33,2.86,3.63,1.63,6.15Z"/>
    <path class="cls-43" d="M222.27,162.48c-.49-2.69,1.02-4.79,2.07-7.03.02-.14.05-.27.06-.41.09-.26.21-.52.33-.77.05-.13.11-.26.16-.39.38-.95.6-1.95.93-2.92.09-.3.21-.59.34-.88.17-.46.34-.93.48-1.4.47-1.67.74-3.38,1.15-5.05.47-1.93-.15-3.34-1.12-5.09-2-3.6-3.99-7.45-2.2-11.86.78,2.76,1.59,5.52,2.31,8.3.35,1.32.31,3.3,2.17,2.91,1.84-.38,1.03-2.32.83-3.56-.41-2.51-1.33-4.96-1.55-7.48-.2-2.29.03-4.8,3.21-5.18.58-.07,1.12.26,1.37.87-1.31,1.17-2.01,2.42-.99,4.2,3.33,5.8,3.65,12.25,3.9,18.7.07,1.88.09,3.71,1.59,5.11.22.27.38.57.48.9-4.38,4.8-9.73,8.22-15.53,11.03Z"/>
    <path class="cls-18" d="M195.71,69.64c.1-.84,2.22-2.33-.71-2.18,25.18-9.47,50.74-17.83,76.18-26.57.79-.54,1.68-.3,2.53-.32.33.18.47.46.44.83-3.64,1.82-7.62,2.77-11.31,4.46-14.29,5.11-28.58,10.18-42.85,15.34-8.06,2.92-16.06,5.96-24.27,8.44Z"/>
    <path class="cls-13" d="M167.78,103.76c1.74-6.71-.79-12.94-2.2-19.29-.34-1.55-1.61-2.37-2.92-2.74-4.77-1.36-9.51-2.92-14.54-3.1-2.46-.93-2.64-1.66-.83-3.28.81-.72,1.77-1.16,2.8-1.33,3.76-.59,7.53-1.36,11.34-.31,2.74-.36,3.14,2.48,4.85,3.53,1.14,3.24,4.11,5.85,3.32,9.74-.1.29-.53.63-.48.71.25.39.25-.41.54-.17,2.98,1.06,2.85,3.4,2.44,5.83-.09.43.15-.15-.06.26-.14.27-.18.27.03.05.32-.41.66-.65,1.16-.35-1.21,3.8-3.45,7.06-5.45,10.45Z"/>
    <path class="cls-36" d="M236.95,131.7c1.83.44,2.5-.79,2.93-2.17.75-2.42,1.28-4.91,2.13-7.29.4-1.11.45-2.58,1.89-3.11,2.77,1.41,2.96,4.15,2.9,6.63-.15,5.83-1.55,11.5-3,17.13-.18.7-.81,1.11-1.21,1.65-.34.46.63.16.74.57-1.13,2.74-3.59,4.32-5.54,6.34-.1-.11-.2-.23-.3-.34-.49-.74-.38-1.56-.27-2.36.7-5.07,1.27-10.13-.64-15.1-.25-.65-.15-1.38.37-1.95Z"/>
    <path class="cls-39" d="M243.34,145.11c-.81-.26-1.27,1.45-2.01.5-.44-.57-.44-1.55.84-1.72.82-.11.92-.89,1.05-1.59.9-4.79,1.88-9.56,2.72-14.36.56-3.18-.41-6.09-2.03-8.81.99-1.29,2.25-1.63,3.62-.78,1.19.74,1.52,2.02,1.36,3.35-.34,2.74-.86,5.47-1.13,8.21-.24,2.4.42,3.9,3.37,2.93,1.74-.57,3.59-.78,5.39-1.15,2.42-.67,5.15-.65,5.73,2.05.71,3.35-2.93,2.37-4.62,3.36-.19.11-.46.13-.68.09-6.27-1.13-9.98,2.33-12.9,7.2l.02-.03c-.38.12-.64.34-.73.74h.01Z"/>
    <path class="cls-31" d="M262.83,45.85c3.3-2.59,7.66-2.82,11.17-4.96h0c-.94,0-1.88,0-2.82-.01,3.92-1.45,7.84-2.9,11.76-4.35,1.27-.24,2.5-.58,3.6-1.29h0c.26-.18.53-.34.83-.46,8.81-3.01,17.62-6.04,26.44-9.02,1.31-.44,2.68-.72,4.02-1.07,1.18-.59,2.5-.79,3.71-1.31h-.02c.74-.3,1.65-.7,2.03.27.36.93-.97.66-1.26,1.23h.02c-.58.56-1.64-.1-2.08.81-19.08,6.86-38.12,13.83-57.39,20.17Z"/>
    <path class="cls-9" d="M160.7,121.93c0,.11.03.25-.03.34-1.06,1.8-1.53,4.66-4.39,3.93-2.59-.66-3.22-3.18-3.07-5.59.2-3.2.83-6.38.98-9.59.12-2.53-.71-4.62-3.92-4.38.28-2.46,1.56-3.2,3.37-1.7,1.39,1.15,2.75,2.07,4.55,2.33.85.13,1.67.68,1.69,1.54.12,4.18,2.41,8.35-.03,12.58-.82,1.41.89-.18.86.53Z"/>
    <path class="cls-27" d="M236.95,131.7c2.43,6.41,2.61,12.88.54,19.41-2.68-.14-2.59-2.07-2.67-4-.22-5.37-.2-10.73-1.99-15.95-.61-1.79-1.69-3.26-2.34-4.99-.93-2.47-.68-3.84,2.32-3.64,1.66,1.21,1.87,3.05,2.1,4.88.44,1.19.6,2.49,1.4,3.54v-.02c.12.33.36.56.63.76h0Z"/>
    <path class="cls-46" d="M164.26,112.23c-.25-3.19-.62-6.37-.72-9.56-.1-3.18-1.8-5.12-4.4-6.51-2.72-1.45-5.47-2.85-8.21-4.28l-.03.03c.67-.13,1.54-.04,1.96-.43,4.83-4.45,9.79-3.09,11.75,3.38.87,2.85,1.73,5.75,1.4,8.81-.1.89.43,1.22,1.05,1.57-.4,2.55-1.45,4.84-2.8,7Z"/>
    <path class="cls-37" d="M224.48,126.68c.76,4.32-.04,9.17,4.2,12.32.87.65.7,1.74.49,2.57-.72,2.76-.77,5.68-2.01,8.31-.26.21-.47.46-.69.71h0c-1.12,1.17-.77,2.84-1.44,4.15h0c-.2.27-.46.47-.68.71,0,0,0,0,0,0-2.47-1.3-.89-3.37-.28-4.47.92-1.67.9-3.07.26-4.56-1.45-3.39.22-7.15-1.33-10.5-2.51-3.31-1.54-7.5-2.84-11.11.03-1.03.06-2.07.09-3.1.63,2.32,4.05,2.28,4.24,4.97Z"/>
    <path class="cls-19" d="M168.41,154.07c.38-.7.61-1.55,1.16-2.09,2.45-2.43,3.81-4.34-.25-6.93-1.25-.8-1.97-2.47-3.91-2.24,1.31-.71,2.57-1.52,3.93-2.1,2.78-1.2,4.87-2.97,5.91-5.92.49-1.4,1.21-2.77,2.88-3.21-1.36,1.47-.37,2.9.09,4.33.72,3.38-2.28,3.83-3.7,5.28-.86-.14-.26.55-.37.09-.03-.12.09-.08.32-.12.79-.12,1.29.26,1.7.85.13.29.17.59.12.89-.38.42.13.81.06,1.22-1.03,3.88.78,7.47,4.75,9.5,1.13.58,2.89.53,2.7,2.54-3.14-.52-5.85-1.67-8.11-4.11-1.42-1.54-3.31-2.07-3.79,1.1-.44,2.91-2.43.19-3.48.93Z"/>
    <path class="cls-21" d="M160.7,121.93c-.58.33-1.17.65-1.75.98,2.59-4.15.2-8.35.38-12.47.07-1.74-.52-2.73-2.37-2.47-1.67.24-2.54-.71-3.38-1.91-1.47-2.09-2.51-1.34-3.32.58-.94,1.15-1.89,2.29-2.83,3.44-.93-1.22-.54-2.15.65-2.89v.03c.3-.17.49-.44.73-.67,1.29-1.55-.27-2.78-.5-4.19.95-.53,1.31.76,2.14.64,3.28-.49,8.3,1.76,10,4.49,1.26,2.03,1.16,4.41,1.64,6.64.41,1.92,1.02-.22,1.48.11-.4,2.77-1.45,5.3-2.87,7.69Z"/>
    <path class="cls-24" d="M176.75,75.18c-1.43-.45-2.87-.82-4.4-.76-.79.03-1.74.02-1.73-1.16,0-.78.61-1.45,1.26-1.43,2.03.08,2.62-1.08,3.27-2.75.53-1.38,9.72-1.28,10.59,0,1.21,1.78-.76,1.91-1.49,2.72-.48.52-3.06.73-.45,1.98-.89,1.07-2.2,1.16-3.43,1.42-.32-.68-.19-1.05.65-.95-.6-.31-.92.24-1.37.44-.92.41-1.84.88-2.9.48Z"/>
    <path class="cls-11" d="M148.09,107.2c-.4.92-.81,1.84-.65,2.89-1.4,3.02-2.8,6.04-4.2,9.06-.27.22-.33.67-.78.67-.44-.23-.89-.45-1.33-.68-.96-2.84-2.74-5.82,1.43-7.72.23-.22.46-.45.69-.67,0,0-.01.02-.01.02.25-.25.5-.49.75-.74.1-2.76.72-5.47-1.37-8.05-1.32-1.62-.69-3.94-.07-5.95,2.01,1.82,3.4,4.33,3.19,6.77-.2,2.4.76,3.36,2.34,4.39Z"/>
    <path class="cls-17" d="M176.75,75.18c1.18-.45,2.35-.93,3.55-1.34.29-.1,1.01-.32.64.53-.13.3-.37.56-.56.84,0,0-.01,0-.01,0-.61.48-1.59-.12-2.09.7-2.87,1.72-4.06,3.99-3.22,7.47.84,3.46-.14,6.81-1.82,9.92-.44.23-.88.47-1.31.7l-.04-.04c-.98-2.07.54-5.25-2.79-6.28l.02.02c.65-3.92-2.71-6.76-2.83-10.47,2.94,3.11,4.96,6.93,7.84,10.85.83-4.74-1.98-9.65,2.63-12.9Z"/>
    <path class="cls-36" d="M244.03,144.4c2.18-6.67,5.42-8.65,12.17-8.13,1.9.15,5.35.57,5.58-1.83.3-3.22-3.15-2.38-5.26-2.74.54-.15,1.07-.4,1.62-.43,2.2-.12,4.45.11,4.8,2.78.33,2.49-1.96,3.01-3.68,3.31-5.74.98-10.51,3.93-15.23,7.04Z"/>
    <path class="cls-41" d="M322.28,24.88c1.32-1.31.48-1.51-.77-1.49,6.66-2.87,13.32-5.74,20.69-6.39-6.32,3.46-13.06,5.83-19.92,7.88Z"/>
    <path class="cls-38" d="M63.55,215.7c.26-.96.89-1.84,1.77-1.98,4.67-.73,8.9-2.98,13.53-3.81,2.17-1.38,4.58-2.13,7.04-2.75,1.27-.84,2.57-1.56,4.18-1.39,2.79.35,5.15-1.91,7.98-1.31-11.5,3.75-23,7.49-34.5,11.24Z"/>
    <path class="cls-41" d="M321.53,23.37c-1.05.96-2.3,1.36-3.71,1.31,1.02-1.06,2.27-1.45,3.71-1.31Z"/>
    <path class="cls-36" d="M236.32,130.96c-1.26-.87-1.68-2.06-1.4-3.54.59,1.13,1.34,2.2,1.4,3.54Z"/>
    <path class="cls-45" d="M286.54,35.23c-.95,1.14-2.2,1.43-3.6,1.29,1.05-.84,2.27-1.22,3.6-1.29Z"/>
    <path class="cls-47" d="M81.54,126.67c1.04-.78,2.24-1.18,3.5-1.4.1.15.19.3.29.45-.75,1.56-1.89,2.04-3.49,1.27-.1-.11-.2-.21-.3-.32Z"/>
    <path class="cls-23" d="M141.88,123.44c-.03-1.02-1.18-2.34.74-2.85.08,1.04-.09,2.01-.74,2.85Z"/>
    <path class="cls-44" d="M217.44,166.05c.28-1.12,1.02-1.54,2.12-1.42-.44.88-1.18,1.3-2.12,1.42Z"/>
    <path class="cls-41" d="M320.22,25.68c.39-1.05,1.26-.86,2.08-.82-.5.77-1.28.8-2.08.82Z"/>
    <path class="cls-24" d="M187.4,72.44c.4-.94,1.16-.92,1.99-.73-.47.78-1.21.81-1.99.73Z"/>
    <path class="cls-24" d="M183.85,73.76c.37-1.03,1.18-.86,1.98-.73-.5.69-1.22.78-1.98.73Z"/>
    <path class="cls-24" d="M178.27,75.92c.44-1.01,1.27-.85,2.09-.7-.57.62-1.35.61-2.09.7Z"/>
    <path class="cls-24" d="M185.91,73c.28-.68.8-.76,1.43-.55-.37.46-.84.67-1.43.55Z"/>
    <path class="cls-23" d="M142.45,119.82c.26-.22.52-.45.78-.67.08.62-.09,1.12-.63,1.46-.05-.26-.1-.53-.15-.79Z"/>
    <path class="cls-4" d="M86.54,124.69c.02.21.03.43.02.64-.33.46-.76.54-1.28.38-.08-.15-.16-.3-.24-.44.5-.19,1-.39,1.5-.58Z"/>
    <path class="cls-6" d="M125.83,140.2c.22-.66.73-.81,1.35-.74-.29.54-.76.74-1.35.74Z"/>
    <path class="cls-4" d="M87.96,124.12c-.33.53-.84.63-1.41.56.36-.47.83-.65,1.41-.56Z"/>
    <path class="cls-46" d="M167.07,105.22c-.2-.67-.04-1.17.65-1.43.11.63-.15,1.08-.65,1.43Z"/>
    <path class="cls-45" d="M287.36,34.78c-.28.15-.55.31-.83.46.28-.15.55-.31.83-.46Z"/>
    <path class="cls-16" d="M123.62,66.71c0-.21,0-.43,0-.64.24,0,.47,0,.71.01-.24.21-.48.42-.71.63Z"/>
    <path class="cls-36" d="M236.95,131.7c-.45-.05-.67-.3-.64-.76.21.25.43.5.64.76Z"/>
    <path class="cls-36" d="M243.33,145.12c.03-.46.27-.71.73-.74-.02.46-.27.7-.73.74Z"/>
    <path class="cls-23" d="M141.21,124.91c.16-.29.32-.58.48-.87-.16.29-.32.58-.48.87Z"/>
    <path class="cls-34" d="M105.41,154.8c.02,1.86.04,3.71.06,5.57-1.05,3.33-3.35,5.58-6.52,7.46-1.24-3.92-1.52-8.04-3.24-11.73-.05-.45-.09-.9-.14-1.35-.19-.26-.37-.52-.55-.79-.06-.44-.12-.88-.18-1.32-.18-.26-.34-.53-.5-.8-.31-1.13-.63-2.27-.94-3.4-.12-.25-.3-.46-.51-.63.03-.24.05-.48.08-.72.93-.77,1.87-.28,2.47.31,2.53,2.5,5.46,2.93,8.75,2.04,2.62,1.28.35,3.68,1.22,5.36Z"/>
    <path class="cls-3" d="M152.98,154.74c.02,3.23.04,6.46.07,9.68.02,1.35-.26,3.16,1.88,2.84,1.82-.28,4.29,1.56,5.31-2.02.96-3.41,2.12-7.24,6.76-7.7-1.76,2.8-3.41,5.67-5.34,8.35-.98,1.37-.92,2.76-.95,4.23-.54,2.68-2.78,4.21-4.23,6.28-1.29.9-2.84,2.33-4.2,1.62-1.52-.79-.34-2.89-.64-4.38,0,0-.01,0-.01,0,.41-.37.29-.96.58-1.37.04-2.57.08-5.15.13-7.72.36-3.26-.68-6.61.64-9.81Z"/>
    <path class="cls-8" d="M152.21,172.28c.08.57-.06,1.05-.58,1.37.19-.46.39-.92.58-1.37Z"/>
    <path class="cls-10" d="M104.05,149.88c-3.15,1.78-5.86,1.24-8.38-1.33-.67-.68-1.52-1.49-2.7-1.46-2.21-6.28-5.11-12.17-9.62-17.19-.69-.77-1.95-1.46-1.52-2.91,1.15-.42,2.29-.85,3.44-1.27.42-.13.85-.25,1.27-.38,2.46-.27,4.46.8,6.34,2.2.24.21.46.43.69.66l.03.04c.21.24.42.46.65.68l.03.03c.22.23.45.46.67.7l2.16,2.78c4.67,3.06,8.65,13.09,6.93,17.47Z"/>
    <path class="cls-15" d="M94.34,151.84c.17.27.33.53.5.8-.17-.27-.33-.53-.5-.8Z"/>
    <path class="cls-15" d="M95.02,153.96c.18.26.36.53.55.79-.18-.26-.36-.53-.55-.79Z"/>
    <path class="cls-15" d="M92.89,147.81c.17.21.34.42.51.63-.17-.21-.34-.42-.51-.63Z"/>
    <path class="cls-38" d="M146.03,198.09c.21-.23.43-.47.64-.7-.21.23-.43.47-.64.7Z"/>
    <path class="cls-33" d="M90.07,205.77c-1.21,1.01-2.66,1.32-4.18,1.39.62-2.79,1.9-3.58,4.18-1.39Z"/>
    <path class="cls-29" d="M104.05,149.88c-.36-6.6-2.94-12.32-6.93-17.47,1.56-.23,1.23-.98.55-1.89-.78-1.05-.93-2.21.08-3.13,1.03-.93,2.02.03,2.82.53,3.78,2.36,8.11,3.9,11.08,7.49,1.17,1.41,2.89,2.48,1.88,4.74-.5,1.1.49,1.4,1.16,1.76,1.53.82,2,2.15,1.96,3.76-2.79,2.39-5.4,5-8.96,6.32-1.24.46-2.15,1.36-2.28,2.81-1.96-1.22.5-3.67-1.36-4.92Z"/>
    <path class="cls-16" d="M142.55,96.04c-.29,4.74,3.7,9.05,1.43,13.99-.25-1.16-.51-2.32-.77-3.48.58-.33.95-1.04.52-1.41-2.94-2.58-3.99-6.06-4.25-9.67-.29-4.13-3.33-5.72-6.06-7.74-.02-2.77-.59-5.16-3.32-6.69-1.69-.95-2.26-2.75-2.32-4.74-.06-1.91-.68-3.29-2.87-4.13-1.63-.62-3.61-2.21-1.98-4.73.89,1.53,1.18,3.62,3.61,3.7.35.01.95.52.99.85.69,5.59,5.96,8.86,7.15,14.17.45,1.97,1.57,3.02,3.63,2.98,1.84,2.04,2.18,5,4.24,6.9Z"/>
    <path class="cls-12" d="M161.43,73.7c-3.99.47-7.97,1-11.97,1.4-1.54.16-1.94,1.5-2.87,2.3.51.41,1.01.81,1.52,1.22-.92-.01-1.84-.02-2.76-.03-1.74-2.82-.18-4.73,2.22-5.41,4.58-1.31,9.32-1.79,13.85.52Z"/>
    <path class="cls-16" d="M122.94,67.43c.22-.23.44-.47.67-.7-.22.23-.44.47-.67.7Z"/>
    <path class="cls-46" d="M150.93,91.88c-1.09-.33-2.87-.15-2.28-2.03.31-.97,1.48-.78,2.41-.32,1.92.95-.15,1.59-.16,2.38,0,0,.03-.03.03-.03Z"/>
    <path class="cls-11" d="M148.81,106.55c-.24.22-.48.45-.73.67.24-.22.48-.45.73-.67Z"/>
    <path class="cls-22" d="M176.1,142.9c-.24-2.39-3.68.37-3.74-2.32,3.3.13,4.73-2.06,5.85-4.66,1.34-.04,1.95,1.12,2.91,1.73.79.5,1.64.42,2.16-.36.72-1.08-.3-1.39-.99-1.74-.96-.49-2.57-.54-1.63-2.27.7-1.3,1.87-1.88,3.15-.81,4.46,3.74,9.92,2.93,15.1,3.44,1.16.11,2.22-.32,2.99,1.4,1.14,2.53,3.39.93,5.21.58,2.77-1.07,5.18.93,7.82.92,5.61,1.02,5.88,1.34,5.05,5.98-.77,1.5-2.24,1.99-3.68,2.37-8.07,2.12-16.18,4.06-24.63,3.56-1.17-.07-2.3-.02-3.44.28-6.73,1.79-10.66-.69-11.84-7.46-.04-.22-.18-.42-.29-.63Z"/>
    <path class="cls-32" d="M219.45,145c1.25-4.35-1.79-5-4.86-5.62.15-.18.32-.33.52-.43,1.68-.83,4.56.04,4.61-3.07.04-2.76-.69-5.19-3.7-6.19,2.3-.84,3.01-3.03,4.13-4.87,2.78,3.24,1.72,7.45,2.84,11.11.45,6.88-.88,13.38-3.84,19.63-.81,1.71-1.3,2.36-2.75.75-.89-.99-2.1-.82-3.25-.83h0c-.47-1.17-.94-2.33-1.41-3.5-.19-1.5,1.03-1.99,1.99-2.36,2.42-.95,4.08-2.75,5.71-4.62Z"/>
    <path class="cls-29" d="M93.58,128.19c-.23-.22-.46-.44-.69-.66.23-.02.45-.02.68-.02,0,.23,0,.45.01.68Z"/>
    <path class="cls-4" d="M143.24,110.75c-.23.22-.46.45-.69.67.23-.22.46-.45.69-.67Z"/>
    <path class="cls-29" d="M94.26,128.91c-.22-.23-.44-.45-.66-.68.22.23.44.45.66.68Z"/>
    <path class="cls-29" d="M94.95,129.63c-.22-.23-.44-.46-.67-.7.22.23.44.46.67.7Z"/>
    <path class="cls-30" d="M219.45,145c-1.11,2.37-2.16,4.69-5.23,5.21-.9.15-1.65,1.15-2.48,1.77-.83.41-1.63,1.02-2.51,1.18-2.58.46-2.09,1.97-1.32,3.54.4.82,1.04,1.49,1.06,2.51.04,2.04.21,3.17-2.93,2.83-6.5-.71-12.52-3-18.77-4.47-.23-.23-.45-.45-.69-.68-.24,0-.48,0-.72-.01-.55-.66-1.52-.08-2.08-.69,0,0,0,0,0,0-.47-1.13-1.52-1.16-2.52-1.49-4.94-1.65-7.54-7.34-5.17-11.08-.16-.15-.21-.31-.16-.46.05-.15.11-.23.16-.23,0,0,0,0,0,0,.79.37,1.18.98,1.39,1.86,1.17,4.99,5.3,7.14,10.1,5.37,1.28-.47,2.53-.61,4.02-.42,5.46.68,10.86-.36,16.17-1.47,3.94-.82,7.99-1.44,11.68-3.24Z"/>
    <path class="cls-30" d="M213.16,155.47c.15.79.22,1.6.46,2.36.52,1.58-.01,2.72-1.34,3.57-.51.33-1.23.45-1.54-.14-.69-1.29-.57-2.73-.08-4.03.39-1.04,1.6-1.26,2.5-1.76h0Z"/>
    <path class="cls-19" d="M183.79,156.17c.76.02,1.59-.13,2.08.69-.77-.02-1.59.13-2.08-.69Z"/>
    <path class="cls-32" d="M208.8,155.42c-.03.08-.06.16-.09.24-.09-.09-.18-.19-.27-.28.07-.06.13-.12.2-.18.05.07.11.15.16.22Z"/>
    <path class="cls-19" d="M186.59,156.88c.23.23.46.45.69.68-.23-.23-.46-.45-.69-.68Z"/>
    <path class="cls-25" d="M225.02,154.75c.16-1.49-.53-3.29,1.44-4.15-.07,1.53-.37,2.97-1.44,4.15Z"/>
    <path class="cls-25" d="M224.34,155.46c.23-.24.46-.47.68-.71-.23.24-.46.47-.68.71Z"/>
    <path class="cls-25" d="M226.46,150.59c.23-.24.46-.48.69-.71-.23.24-.46.48-.69.71Z"/>
    <path class="cls-17" d="M171.92,94.01c-.11.32-.21.63-.32.95-.09-.07-.26-.19-.26-.2.17-.27.35-.53.53-.78,0,0,.04.04.04.04Z"/>
    <path class="cls-17" d="M169.09,87.69c-.05.1-.1.2-.15.3.06-.1.11-.19.17-.29,0,0-.02-.02-.02-.02Z"/>
    <path class="cls-18" d="M274,40.89c.32-.51.77-.7,1.34-.53.08.02.12.17.18.26-.51.09-1.01.18-1.52.28,0,0,0,0,0,0Z"/>
    <path class="cls-22" d="M176.1,142.9c0,.23,0,.46,0,.69-.48-.23-.48-.46,0-.69Z"/>
  </g>
</svg>