<?xml version="1.0" encoding="UTF-8"?>
<svg id="Camada_1" data-name="Camada 1" xmlns="http://www.w3.org/2000/svg" viewBox="0 0 1000 205.12">
  <defs>
    <style>
      .cls-1 {
        fill: #24a096;
      }

      .cls-1, .cls-2, .cls-3 {
        stroke-width: 0px;
      }

      .cls-2 {
        fill: #007265;
      }

      .cls-3 {
        fill: #04483f;
      }
    </style>
  </defs>
  <g>
    <path class="cls-1" d="M918.06,180.22c-37.02,1.9-69.47-31.63-69.08-67.95.41-37.87,30.89-68.92,68.94-69,38.7-.08,69.02,32.09,69.18,69.48.16,37.19-30.86,67.41-69.04,67.47ZM917.71,135.94c12.98.17,24.73-10.94,24.68-23.35-.06-13.19-10.6-23.96-23.78-24.31-13.53-.36-24.56,9.75-24.92,22.82-.37,13.44,10.47,24.65,24.02,24.83Z"/>
    <path class="cls-3" d="M917.71,135.94c-13.55-.18-24.39-11.39-24.02-24.83.36-13.07,11.4-23.18,24.92-22.82,13.18.35,23.72,11.12,23.78,24.31.05,12.41-11.7,23.52-24.68,23.35Z"/>
  </g>
  <g>
    <path class="cls-2" d="M211.02,53.81c7.88,4.13,14.09,10.26,18.6,18.38,4.52,8.12,6.78,17.92,6.78,29.4v74.65h-25.96v-70.74c0-11.33-2.83-20.02-8.5-26.07-5.67-6.05-13.4-9.07-23.2-9.07s-17.57,3.03-23.31,9.07c-5.74,6.05-8.61,14.74-8.61,26.07v70.74h-25.96v-70.74c0-11.33-2.83-20.02-8.5-26.07-5.67-6.05-13.4-9.07-23.2-9.07s-17.57,3.03-23.31,9.07c-5.74,6.05-8.61,14.74-8.61,26.07v70.74h-26.18V49.68h26.18v14.47c4.29-5.2,9.72-9.26,16.31-12.17,6.58-2.91,13.63-4.36,21.13-4.36,10.11,0,19.14,2.15,27.1,6.43,7.96,4.29,14.09,10.49,18.38,18.6,3.83-7.65,9.8-13.74,17.92-18.26,8.11-4.51,16.84-6.78,26.18-6.78,9.95,0,18.87,2.07,26.76,6.2Z"/>
    <path class="cls-2" d="M268.9,78.62c5.28-9.8,12.48-17.42,21.59-22.85,9.11-5.43,19.18-8.15,30.2-8.15,9.95,0,18.64,1.95,26.07,5.86,7.42,3.9,13.36,8.77,17.8,14.59v-18.38h26.41v126.56h-26.41v-18.83c-4.44,5.97-10.49,10.95-18.15,14.93-7.66,3.98-16.39,5.97-26.18,5.97-10.87,0-20.83-2.79-29.86-8.38-9.04-5.59-16.19-13.4-21.48-23.43-5.28-10.03-7.92-21.4-7.92-34.11s2.64-23.96,7.92-33.76ZM359.17,90.1c-3.6-6.43-8.31-11.33-14.12-14.7-5.82-3.37-12.1-5.05-18.83-5.05s-13.02,1.65-18.83,4.94c-5.82,3.29-10.53,8.12-14.12,14.47-3.6,6.36-5.4,13.9-5.4,22.62s1.8,16.39,5.4,22.97c3.6,6.59,8.34,11.6,14.24,15.04,5.89,3.45,12.13,5.17,18.72,5.17s13.01-1.68,18.83-5.05c5.82-3.37,10.53-8.3,14.12-14.81,3.6-6.51,5.4-14.13,5.4-22.85s-1.8-16.31-5.4-22.74Z"/>
    <path class="cls-2" d="M540.5,122.72h-96.7c.76,10.11,4.51,18.22,11.25,24.35,6.74,6.13,15,9.19,24.81,9.19,14.09,0,24.04-5.89,29.86-17.69h28.25c-3.83,11.64-10.76,21.17-20.79,28.6-10.03,7.43-22.47,11.14-37.32,11.14-12.1,0-22.93-2.72-32.5-8.15-9.57-5.43-17.08-13.09-22.51-22.97-5.44-9.88-8.15-21.32-8.15-34.34s2.64-24.46,7.92-34.34c5.28-9.88,12.71-17.49,22.28-22.85,9.57-5.36,20.56-8.04,32.96-8.04s22.58,2.61,31.93,7.81c9.34,5.21,16.61,12.52,21.82,21.94,5.2,9.42,7.81,20.25,7.81,32.5,0,4.75-.31,9.04-.92,12.86ZM514.09,101.58c-.15-9.65-3.6-17.38-10.34-23.2-6.74-5.82-15.08-8.73-25.04-8.73-9.04,0-16.77,2.87-23.2,8.61-6.43,5.74-10.26,13.52-11.48,23.31h70.05Z"/>
    <path class="cls-2" d="M586.32,172.9c-7.89-3.6-14.13-8.5-18.72-14.7s-7.04-13.13-7.35-20.79h27.1c.46,5.36,3.02,9.84,7.69,13.44,4.67,3.6,10.53,5.4,17.57,5.4s13.05-1.41,17.11-4.25c4.06-2.83,6.09-6.47,6.09-10.91,0-4.74-2.26-8.27-6.78-10.57-4.52-2.3-11.68-4.82-21.48-7.58-9.5-2.6-17.23-5.13-23.2-7.58-5.97-2.45-11.14-6.2-15.5-11.25-4.36-5.05-6.55-11.71-6.55-19.98,0-6.74,1.99-12.9,5.97-18.49,3.98-5.59,9.68-9.99,17.11-13.21,7.43-3.22,15.96-4.82,25.61-4.82,14.39,0,25.99,3.64,34.8,10.91,8.8,7.27,13.51,17.19,14.13,29.74h-26.18c-.46-5.66-2.76-10.18-6.89-13.55-4.13-3.37-9.73-5.05-16.77-5.05s-12.17,1.3-15.85,3.9c-3.67,2.61-5.51,6.05-5.51,10.34,0,3.37,1.22,6.2,3.68,8.5,2.45,2.3,5.43,4.1,8.96,5.4,3.52,1.3,8.73,2.95,15.62,4.94,9.19,2.45,16.73,4.94,22.62,7.46,5.89,2.53,10.99,6.24,15.27,11.14,4.29,4.9,6.51,11.41,6.66,19.52,0,7.2-1.99,13.63-5.97,19.29-3.98,5.67-9.61,10.11-16.88,13.32-7.27,3.22-15.81,4.82-25.61,4.82s-18.87-1.8-26.76-5.4Z"/>
    <path class="cls-2" d="M720.34,71.04v70.05c0,4.75,1.11,8.15,3.33,10.22,2.22,2.07,6.01,3.1,11.37,3.1h16.08v21.82h-20.67c-11.79,0-20.83-2.76-27.1-8.27-6.28-5.51-9.42-14.47-9.42-26.87v-70.05h-14.93v-21.36h14.93v-31.47h26.41v31.47h30.78v21.36h-30.78Z"/>
    <path class="cls-2" d="M816.7,53.01c6.35-3.6,13.9-5.4,22.62-5.4v27.1h-6.66c-10.26,0-18.03,2.61-23.31,7.81-5.28,5.21-7.92,14.24-7.92,27.1v66.61h-26.18V49.68h26.18v18.38c3.83-6.43,8.92-11.44,15.27-15.04Z"/>
  </g>
</svg>