<?xml version="1.0" encoding="UTF-8"?>
<svg id="Camada_1" data-name="Camada 1" xmlns="http://www.w3.org/2000/svg" viewBox="0 0 1000 1000">
  <defs>
    <style>
      .cls-1 {
        fill: #24a096;
      }

      .cls-1, .cls-2 {
        stroke-width: 0px;
      }

      .cls-2 {
        fill: #04483f;
      }

      .cls-3 {
        fill: #007265;
        font-family: Poppins-Medium, Poppins;
        font-size: 229.69px;
        font-weight: 500;
      }
    </style>
  </defs>
  <g>
    <path class="cls-1" d="M918.06,556.06c-37.02,1.9-69.47-31.63-69.08-67.95.41-37.87,30.89-68.92,68.94-69,38.7-.08,69.02,32.09,69.18,69.48.16,37.19-30.86,67.41-69.04,67.47ZM917.71,511.78c12.98.17,24.73-10.94,24.68-23.35-.06-13.19-10.6-23.96-23.78-24.31-13.53-.36-24.56,9.75-24.92,22.82-.37,13.44,10.47,24.65,24.02,24.83Z"/>
    <path class="cls-2" d="M917.71,511.78c-13.55-.18-24.39-11.39-24.02-24.83.36-13.07,11.4-23.18,24.92-22.82,13.18.35,23.72,11.12,23.78,24.31.05,12.41-11.7,23.52-24.68,23.35Z"/>
  </g>
  <text class="cls-3" transform="translate(13.84 552.07)"><tspan x="0" y="0">maestr</tspan></text>
</svg>